<svg version="1.1" id="Layer_1" xmlns="http://www.w3.org/2000/svg" xmlns:xlink="http://www.w3.org/1999/xlink" x="0px" y="0px"
	 width="100%" viewBox="0 0 317 233" enable-background="new 0 0 317 233" xml:space="preserve">
<path fill="#FDFDFD" opacity="1.000000" stroke="none" 
	d="
M318.000000,85.000000 
	C318.000000,135.000000 318.000000,184.499985 318.000000,234.000000 
	C212.333359,234.000000 106.666702,234.000000 1.000042,234.000000 
	C1.000028,156.333359 1.000028,78.666725 1.000014,1.000062 
	C106.666626,1.000042 212.333252,1.000042 317.999939,1.000021 
	C318.000000,28.833334 318.000000,56.666668 318.000000,85.000000 
M183.011108,71.243355 
	C182.622665,70.170731 182.234238,69.098106 182.018082,67.221169 
	C182.294510,65.327263 183.167282,63.287048 182.744659,61.564659 
	C180.864395,53.901207 170.659241,49.404057 163.361969,52.617229 
	C161.890488,53.265160 159.721725,53.871590 158.491745,53.258583 
	C153.213165,50.627796 147.924896,51.031330 142.456345,52.154583 
	C135.761154,53.529781 129.183899,62.114719 132.264435,70.398300 
	C127.012558,71.731308 125.718376,73.428070 127.153320,77.630363 
	C130.374100,87.062584 133.531342,96.526428 137.171051,105.798157 
	C138.005081,107.922714 140.409225,110.278854 142.559494,110.896423 
	C153.664032,114.085739 164.962387,113.960434 176.090515,110.931580 
	C178.228027,110.349792 180.921066,108.442352 181.623917,106.514366 
	C185.549759,95.745422 188.942688,84.782188 192.869781,73.384705 
	C191.857117,72.787277 190.878891,71.766319 189.824631,71.680626 
	C187.633011,71.502480 185.401123,71.820015 183.011108,71.243355 
M241.332504,149.543381 
	C239.254395,149.543381 237.176285,149.543381 235.215698,149.543381 
	C235.215698,160.885590 235.215698,171.459900 235.215698,182.157394 
	C238.100769,182.157394 240.687820,182.157394 243.268997,182.157394 
	C243.268997,171.623062 243.268997,161.362045 243.312393,150.357788 
	C242.888931,150.180038 242.465454,150.002289 241.332504,149.543381 
M108.810822,203.076523 
	C107.540039,203.144363 106.269264,203.212189 104.596764,203.301483 
	C104.596764,206.075760 104.585724,208.552765 104.598633,211.029633 
	C104.663322,223.440140 111.662483,230.712830 124.064941,230.758682 
	C148.561890,230.849243 173.059753,230.772903 197.556915,230.680222 
	C205.362030,230.650696 211.693161,226.509171 213.804138,219.081619 
	C215.208420,214.140686 215.088013,208.766403 215.705063,203.078888 
	C179.668823,203.078888 144.708542,203.078888 108.810822,203.076523 
M129.502380,2.376947 
	C124.507065,2.462609 119.511665,2.544157 114.516441,2.634860 
	C106.183640,2.786168 103.042366,5.859205 103.079674,14.151884 
	C103.152260,30.288666 103.416267,46.424812 103.445709,62.561501 
	C103.472137,77.046791 103.212883,91.532967 103.307159,106.017273 
	C103.317863,107.662399 104.799057,109.297958 105.598396,110.937950 
	C106.396500,109.351212 107.863922,107.774139 107.887001,106.176208 
	C108.074547,93.188866 108.049286,80.197266 107.969879,67.207687 
	C107.921074,59.224083 107.770805,51.237720 107.470650,43.259945 
	C107.145134,34.608334 106.592705,25.965261 106.138062,17.296215 
	C142.745758,17.296215 178.304092,17.296215 214.006973,17.296215 
	C214.803391,48.671131 211.844574,79.815193 213.607590,110.906227 
	C214.411575,111.017624 215.215561,111.129028 216.019547,111.240425 
	C216.631744,109.093025 217.777634,106.945175 217.775818,104.798294 
	C217.750092,74.334694 217.596039,43.871052 217.406448,13.407834 
	C217.357620,5.560637 214.368240,2.690782 206.441910,2.653836 
	C181.128601,2.535845 155.815140,2.454048 129.502380,2.376947 
M197.694397,136.923233 
	C196.093689,136.994476 194.492966,137.065720 192.663086,137.147171 
	C192.663086,152.378433 192.663086,167.236313 192.663086,182.406982 
	C199.615128,182.406982 206.237335,182.587265 212.845322,182.357925 
	C219.907959,182.112778 225.075333,178.754715 226.432373,173.460052 
	C227.025833,171.144547 227.321716,168.261581 226.450500,166.181808 
	C225.267776,163.358353 222.835663,161.058273 220.872772,158.444992 
	C225.460953,153.517715 226.728867,149.438004 224.595596,144.576660 
	C222.140594,138.982178 217.214783,137.216568 211.610321,136.972519 
	C207.297058,136.784714 202.969574,136.924316 197.694397,136.923233 
M59.169411,148.707001 
	C56.786057,149.736374 54.402706,150.765747 52.019352,151.795120 
	C52.145447,151.398926 52.271538,151.002747 52.397633,150.606567 
	C49.577488,150.036987 46.757343,149.467422 43.428692,148.795151 
	C43.428692,160.470917 43.428692,171.200195 43.428692,182.187759 
	C46.188671,182.187759 48.769375,182.187759 52.001575,182.187759 
	C52.001575,175.655624 51.959095,169.375900 52.016766,163.097122 
	C52.054150,159.027405 54.005070,156.412140 58.217281,156.105835 
	C62.091217,155.824127 64.242546,158.397324 64.334106,163.459549 
	C64.446922,169.696854 64.361061,175.937775 64.361061,182.071793 
	C67.526741,182.071793 70.095810,182.071793 72.929665,182.071793 
	C72.929665,175.529877 72.758293,169.371780 72.980507,163.227905 
	C73.180740,157.692047 78.135529,154.007721 81.878983,156.752365 
	C83.773750,158.141571 85.066170,161.357941 85.263855,163.856384 
	C85.742592,169.906738 85.419380,176.020554 85.419380,182.006607 
	C88.552490,182.006607 91.094116,182.006607 93.377434,182.006607 
	C93.377434,173.758362 93.774208,165.924164 93.249092,158.152267 
	C92.845245,152.175293 88.333900,148.210007 82.442551,148.721481 
	C78.515549,149.062424 74.744171,151.195847 70.341209,152.721786 
	C68.436836,149.742020 64.675919,148.069153 59.169411,148.707001 
M5.616745,175.382248 
	C5.828907,176.559647 5.629837,178.367630 6.317415,178.816025 
	C12.572373,182.895218 19.373995,184.554688 26.734663,182.340744 
	C32.350796,180.651489 35.784256,176.979080 36.442413,170.993851 
	C37.067245,165.311691 34.995964,161.585236 29.242712,158.590988 
	C25.859024,156.829971 22.084574,155.718262 18.949049,153.621796 
	C17.199432,152.451965 16.397848,149.864243 15.169039,147.915497 
	C17.411333,146.591553 19.664137,144.179550 21.893433,144.201080 
	C25.160572,144.232635 28.410881,146.006485 32.152779,147.191254 
	C33.114452,145.574493 34.346302,143.503510 35.764759,141.118790 
	C28.745300,136.223068 21.714521,134.457916 13.917712,137.726212 
	C9.006536,139.784897 6.429197,143.568283 6.104915,148.904846 
	C5.789116,154.101807 7.926147,157.978607 12.489812,160.357513 
	C15.725571,162.044235 19.129580,163.408035 22.457506,164.918137 
	C25.513277,166.304733 28.377060,168.060181 26.937481,172.008392 
	C25.519526,175.897293 21.873606,176.294067 18.579412,175.453323 
	C15.113370,174.568695 11.886615,172.746506 8.293680,171.223068 
	C7.616592,172.251556 6.804386,173.485291 5.616745,175.382248 
M279.704498,174.533905 
	C286.664459,185.577576 301.317535,186.538467 309.730316,176.284119 
	C308.038269,174.993408 306.351593,173.706772 304.702820,172.449051 
	C296.344940,178.540665 288.794983,177.085663 286.980133,168.658417 
	C294.966644,168.658417 302.849518,168.658417 310.657410,168.658417 
	C311.593536,160.066269 309.290894,154.442032 303.440308,150.957611 
	C297.447998,147.388748 291.335480,147.763565 285.484894,151.224258 
	C278.525818,155.340652 276.355591,163.751526 279.704498,174.533905 
M112.083237,162.388306 
	C110.776131,162.629303 109.453369,162.806427 108.164604,163.122253 
	C102.274818,164.565613 99.367172,168.638016 100.056252,174.411713 
	C100.681931,179.654221 104.635201,183.400726 110.384117,183.073990 
	C114.133308,182.860901 117.804993,181.284180 121.544754,180.309631 
	C122.675148,184.430206 126.122536,181.888306 129.083481,182.145538 
	C129.083481,174.377411 129.617142,166.860886 128.832336,159.484650 
	C128.497833,156.340790 126.056091,152.605713 123.437805,150.686737 
	C117.643372,146.439926 107.349838,148.367554 101.809608,154.064636 
	C102.942932,155.709473 104.117371,157.413986 105.375191,159.239502 
	C109.484169,155.928360 113.664322,154.335632 118.154793,156.664963 
	C119.616394,157.423141 120.288399,159.703537 121.958267,162.264023 
	C117.888832,162.264023 115.416077,162.264023 112.083237,162.388306 
M184.300400,150.983459 
	C181.702057,150.143555 179.103729,149.303650 175.941483,148.281464 
	C175.941483,145.841141 175.941483,142.921753 175.941483,139.607040 
	C172.849228,140.231689 170.289581,140.748764 167.522720,141.307678 
	C167.389587,143.990524 167.268661,146.427780 167.142639,148.967453 
	C165.407013,149.302277 163.873932,149.598022 162.299988,149.901657 
	C162.299988,152.136017 162.299988,154.081390 162.299988,156.125519 
	C164.020035,156.478027 165.550293,156.791641 167.202621,157.130280 
	C167.202621,161.794907 167.194885,166.102570 167.204117,170.410187 
	C167.228043,181.576721 174.279709,186.027420 185.171005,181.340225 
	C184.736069,179.391998 184.283844,177.366333 183.782272,175.119675 
	C179.885178,176.292007 176.425812,176.398880 176.067215,171.664505 
	C175.694382,166.742126 175.984131,161.769577 175.984131,156.469666 
	C178.887177,156.469666 181.329391,156.469666 184.071732,156.469666 
	C184.169830,154.688141 184.249466,153.241928 184.300400,150.983459 
M255.371445,166.435745 
	C255.364929,167.930099 255.342667,169.424561 255.354431,170.918777 
	C255.439621,181.740097 262.905731,186.238968 273.122650,181.314697 
	C272.706909,179.334946 272.275421,177.280228 271.797821,175.005997 
	C267.982941,176.279648 264.496857,176.724838 264.164551,171.765121 
	C263.834229,166.835587 264.092194,161.866608 264.092194,156.779190 
	C266.923706,156.550980 269.353729,156.355133 271.764771,156.160812 
	C271.764771,153.854050 271.764771,151.819611 271.764771,149.698685 
	C269.116547,149.503448 266.844971,149.335968 264.294250,149.147919 
	C264.148468,145.920074 264.016357,142.994446 263.863403,139.607193 
	C260.931946,140.228317 258.289459,140.788208 255.612915,141.355316 
	C255.470032,144.246323 255.350388,146.667221 255.229462,149.114105 
	C253.408127,149.372574 251.962814,149.577682 250.393402,149.800400 
	C250.393402,152.023315 250.393402,154.069977 250.393402,156.143890 
	C252.105835,156.404633 253.532333,156.621841 255.369629,156.901596 
	C255.369629,159.874908 255.369629,162.668518 255.371445,166.435745 
M137.931381,167.495712 
	C137.931381,172.298279 137.931381,177.100845 137.931381,182.026688 
	C140.994629,182.026688 143.695633,182.026688 146.585678,182.026688 
	C146.585678,177.778076 146.578049,173.951660 146.587112,170.125275 
	C146.613953,158.788574 147.949921,157.293152 158.979034,156.531296 
	C158.979034,154.133194 158.979034,151.713318 158.979034,149.228806 
	C153.706451,147.504166 149.835297,149.552689 146.503296,154.039734 
	C146.145355,152.069702 145.926178,150.863449 145.719849,149.727890 
	C143.016220,149.727890 140.589630,149.727890 137.931000,149.727890 
	C137.931000,155.530899 137.931000,161.014801 137.931381,167.495712 
M193.291992,45.889793 
	C185.852539,46.536381 182.241089,51.458786 183.848709,58.693222 
	C184.360931,60.998287 184.745117,63.331806 185.187881,65.652306 
	C187.472183,65.131866 189.736816,64.490860 192.044617,64.114601 
	C197.932556,63.154655 201.139954,60.586872 201.678268,56.214497 
	C202.230972,51.725086 199.655792,48.255653 193.291992,45.889793 
M243.298187,136.342590 
	C240.499542,134.066727 237.280716,133.293488 235.323044,136.714752 
	C234.291382,138.517670 234.450867,142.014084 235.597916,143.720444 
	C236.461380,145.004913 240.165024,145.594009 241.873734,144.839005 
	C245.236084,143.353333 245.613846,140.165726 243.298187,136.342590 
z"/>
<path fill="#1F2324" opacity="1.000000" stroke="none" 
	d="
M109.279541,203.077698 
	C144.708542,203.078888 179.668823,203.078888 215.705063,203.078888 
	C215.088013,208.766403 215.208420,214.140686 213.804138,219.081619 
	C211.693161,226.509171 205.362030,230.650696 197.556915,230.680222 
	C173.059753,230.772903 148.561890,230.849243 124.064941,230.758682 
	C111.662483,230.712830 104.663322,223.440140 104.598633,211.029633 
	C104.585724,208.552765 104.596764,206.075760 104.596764,203.301483 
	C106.269264,203.212189 107.540039,203.144363 109.279541,203.077698 
M161.730988,221.369400 
	C165.051682,218.649017 165.767090,215.380936 163.510986,211.702820 
	C161.613876,208.609985 158.723557,207.720947 155.323410,208.803711 
	C151.453461,210.036072 149.582672,214.154510 150.993225,218.045364 
	C152.495438,222.189072 156.080460,223.532715 161.730988,221.369400 
z"/>
<path fill="#0D0D0D" opacity="1.000000" stroke="none" 
	d="
M130.002045,2.367611 
	C155.815140,2.454048 181.128601,2.535845 206.441910,2.653836 
	C214.368240,2.690782 217.357620,5.560637 217.406448,13.407834 
	C217.596039,43.871052 217.750092,74.334694 217.775818,104.798294 
	C217.777634,106.945175 216.631744,109.093025 216.019547,111.240425 
	C215.215561,111.129028 214.411575,111.017624 213.607590,110.906227 
	C211.844574,79.815193 214.803391,48.671131 214.006973,17.296215 
	C178.304092,17.296215 142.745758,17.296215 106.138062,17.296215 
	C106.592705,25.965261 107.145134,34.608334 107.470650,43.259945 
	C107.770805,51.237720 107.921074,59.224083 107.969879,67.207687 
	C108.049286,80.197266 108.074547,93.188866 107.887001,106.176208 
	C107.863922,107.774139 106.396500,109.351212 105.598404,110.937950 
	C104.799057,109.297958 103.317863,107.662399 103.307159,106.017273 
	C103.212883,91.532967 103.472137,77.046791 103.445709,62.561501 
	C103.416267,46.424812 103.152260,30.288666 103.079674,14.151884 
	C103.042366,5.859205 106.183640,2.786168 114.516441,2.634860 
	C119.511665,2.544157 124.507065,2.462609 130.002045,2.367611 
M162.498260,11.131409 
	C168.260712,11.131409 174.023163,11.131409 179.785614,11.131409 
	C179.936920,10.615829 180.088226,10.100249 180.239532,9.584670 
	C179.129410,9.064795 178.023743,8.104486 176.908463,8.093204 
	C165.806274,7.980914 154.702026,7.982682 143.600037,8.104165 
	C142.686615,8.114161 141.785355,9.238158 140.878433,9.844539 
	C141.786057,10.273094 142.687042,11.055581 143.602402,11.072794 
	C149.566254,11.184929 155.533249,11.131007 162.498260,11.131409 
z"/>
<path fill="#252728" opacity="1.000000" stroke="none" 
	d="
M198.171402,136.920776 
	C202.969574,136.924316 207.297058,136.784714 211.610321,136.972519 
	C217.214783,137.216568 222.140594,138.982178 224.595596,144.576660 
	C226.728867,149.438004 225.460953,153.517715 220.872772,158.444992 
	C222.835663,161.058273 225.267776,163.358353 226.450500,166.181808 
	C227.321716,168.261581 227.025833,171.144547 226.432373,173.460052 
	C225.075333,178.754715 219.907959,182.112778 212.845322,182.357925 
	C206.237335,182.587265 199.615128,182.406982 192.663086,182.406982 
	C192.663086,167.236313 192.663086,152.378433 192.663086,137.147171 
	C194.492966,137.065720 196.093689,136.994476 198.171402,136.920776 
M215.239380,163.930618 
	C210.731033,163.477997 206.222687,163.025360 201.370132,162.538177 
	C201.370132,167.160004 201.370132,170.868210 201.370132,174.909912 
	C205.049255,174.909912 208.572998,175.373001 211.889130,174.743118 
	C214.013290,174.339645 216.800995,172.707092 217.507935,170.920074 
	C218.187195,169.203049 216.569275,166.577240 215.239380,163.930618 
M201.316315,155.001816 
	C204.526321,155.255356 207.745193,155.786606 210.943878,155.684738 
	C214.175110,155.581802 216.026123,153.574326 216.193924,150.218842 
	C216.367828,146.741821 214.425934,144.840622 211.273132,144.511459 
	C208.059296,144.175934 204.783127,144.437241 201.132523,144.437241 
	C201.132523,147.889053 201.132523,150.998550 201.316315,155.001816 
z"/>
<path fill="#292B2C" opacity="1.000000" stroke="none" 
	d="
M59.556622,148.651337 
	C64.675919,148.069153 68.436836,149.742020 70.341209,152.721786 
	C74.744171,151.195847 78.515549,149.062424 82.442551,148.721481 
	C88.333900,148.210007 92.845245,152.175293 93.249092,158.152267 
	C93.774208,165.924164 93.377434,173.758362 93.377434,182.006607 
	C91.094116,182.006607 88.552490,182.006607 85.419380,182.006607 
	C85.419380,176.020554 85.742592,169.906738 85.263855,163.856384 
	C85.066170,161.357941 83.773750,158.141571 81.878983,156.752365 
	C78.135529,154.007721 73.180740,157.692047 72.980507,163.227905 
	C72.758293,169.371780 72.929665,175.529877 72.929665,182.071793 
	C70.095810,182.071793 67.526741,182.071793 64.361061,182.071793 
	C64.361061,175.937775 64.446922,169.696854 64.334106,163.459549 
	C64.242546,158.397324 62.091217,155.824127 58.217281,156.105835 
	C54.005070,156.412140 52.054150,159.027405 52.016766,163.097122 
	C51.959095,169.375900 52.001575,175.655624 52.001575,182.187759 
	C48.769375,182.187759 46.188671,182.187759 43.428692,182.187759 
	C43.428692,171.200195 43.428692,160.470917 43.428692,148.795151 
	C46.757343,149.467422 49.577488,150.036987 52.397633,150.606567 
	C52.271538,151.002747 52.145447,151.398926 52.019352,151.795120 
	C54.402706,150.765747 56.786057,149.736374 59.556622,148.651337 
z"/>
<path fill="#252628" opacity="1.000000" stroke="none" 
	d="
M5.804462,175.050629 
	C6.804386,173.485291 7.616592,172.251556 8.293680,171.223068 
	C11.886615,172.746506 15.113370,174.568695 18.579412,175.453323 
	C21.873606,176.294067 25.519526,175.897293 26.937481,172.008392 
	C28.377060,168.060181 25.513277,166.304733 22.457506,164.918137 
	C19.129580,163.408035 15.725571,162.044235 12.489812,160.357513 
	C7.926147,157.978607 5.789116,154.101807 6.104915,148.904846 
	C6.429197,143.568283 9.006536,139.784897 13.917712,137.726212 
	C21.714521,134.457916 28.745300,136.223068 35.764759,141.118790 
	C34.346302,143.503510 33.114452,145.574493 32.152779,147.191254 
	C28.410881,146.006485 25.160572,144.232635 21.893433,144.201080 
	C19.664137,144.179550 17.411333,146.591553 15.169041,147.915497 
	C16.397848,149.864243 17.199432,152.451965 18.949049,153.621796 
	C22.084574,155.718262 25.859024,156.829971 29.242712,158.590988 
	C34.995964,161.585236 37.067245,165.311691 36.442413,170.993851 
	C35.784256,176.979080 32.350796,180.651489 26.734663,182.340744 
	C19.373995,184.554688 12.572373,182.895218 6.317415,178.816025 
	C5.629837,178.367630 5.828907,176.559647 5.804462,175.050629 
z"/>
<path fill="#27282A" opacity="1.000000" stroke="none" 
	d="
M279.532532,174.179306 
	C276.355591,163.751526 278.525818,155.340652 285.484894,151.224258 
	C291.335480,147.763565 297.447998,147.388748 303.440308,150.957611 
	C309.290894,154.442032 311.593536,160.066269 310.657410,168.658417 
	C302.849518,168.658417 294.966644,168.658417 286.980133,168.658417 
	C288.794983,177.085663 296.344940,178.540665 304.702820,172.449051 
	C306.351593,173.706772 308.038269,174.993408 309.730316,176.284119 
	C301.317535,186.538467 286.664459,185.577576 279.532532,174.179306 
M288.398682,158.117599 
	C287.793854,159.351562 287.188995,160.585510 286.411072,162.172607 
	C292.306946,162.172607 297.461151,162.172607 302.771149,162.172607 
	C300.084717,154.970963 295.309662,153.522369 288.398682,158.117599 
z"/>
<path fill="#242627" opacity="1.000000" stroke="none" 
	d="
M112.513275,162.326172 
	C115.416077,162.264023 117.888832,162.264023 121.958267,162.264023 
	C120.288399,159.703537 119.616394,157.423141 118.154793,156.664963 
	C113.664322,154.335632 109.484169,155.928360 105.375191,159.239502 
	C104.117371,157.413986 102.942932,155.709473 101.809608,154.064636 
	C107.349838,148.367554 117.643372,146.439926 123.437805,150.686737 
	C126.056091,152.605713 128.497833,156.340790 128.832336,159.484650 
	C129.617142,166.860886 129.083481,174.377411 129.083481,182.145538 
	C126.122536,181.888306 122.675148,184.430206 121.544754,180.309631 
	C117.804993,181.284180 114.133308,182.860901 110.384117,183.073990 
	C104.635201,183.400726 100.681931,179.654221 100.056252,174.411713 
	C99.367172,168.638016 102.274818,164.565613 108.164604,163.122253 
	C109.453369,162.806427 110.776131,162.629303 112.513275,162.326172 
M112.396545,168.411728 
	C109.771873,169.152206 107.682388,170.366501 108.544441,173.607193 
	C109.447639,177.002548 112.213997,177.273895 114.898270,176.651520 
	C119.121826,175.672211 121.176193,172.860977 120.765228,168.253632 
	C118.117767,168.253632 115.668053,168.253632 112.396545,168.411728 
z"/>
<path fill="#292B2B" opacity="1.000000" stroke="none" 
	d="
M184.314758,151.389587 
	C184.249466,153.241928 184.169830,154.688141 184.071732,156.469666 
	C181.329391,156.469666 178.887177,156.469666 175.984131,156.469666 
	C175.984131,161.769577 175.694382,166.742126 176.067215,171.664505 
	C176.425812,176.398880 179.885178,176.292007 183.782272,175.119675 
	C184.283844,177.366333 184.736069,179.391998 185.171005,181.340225 
	C174.279709,186.027420 167.228043,181.576721 167.204117,170.410187 
	C167.194885,166.102570 167.202621,161.794907 167.202621,157.130280 
	C165.550293,156.791641 164.020035,156.478027 162.299988,156.125519 
	C162.299988,154.081390 162.299988,152.136017 162.299988,149.901657 
	C163.873932,149.598022 165.407013,149.302277 167.142639,148.967453 
	C167.268661,146.427780 167.389587,143.990524 167.522720,141.307678 
	C170.289581,140.748764 172.849228,140.231689 175.941483,139.607040 
	C175.941483,142.921753 175.941483,145.841141 175.941483,148.281464 
	C179.103729,149.303650 181.702057,150.143555 184.314758,151.389587 
z"/>
<path fill="#272829" opacity="1.000000" stroke="none" 
	d="
M255.370544,165.948944 
	C255.369629,162.668518 255.369629,159.874908 255.369629,156.901596 
	C253.532333,156.621841 252.105835,156.404633 250.393402,156.143890 
	C250.393402,154.069977 250.393402,152.023315 250.393402,149.800400 
	C251.962814,149.577682 253.408127,149.372574 255.229462,149.114105 
	C255.350388,146.667221 255.470032,144.246323 255.612915,141.355316 
	C258.289459,140.788208 260.931946,140.228317 263.863403,139.607193 
	C264.016357,142.994446 264.148468,145.920074 264.294250,149.147919 
	C266.844971,149.335968 269.116547,149.503448 271.764771,149.698685 
	C271.764771,151.819611 271.764771,153.854050 271.764771,156.160812 
	C269.353729,156.355133 266.923706,156.550980 264.092194,156.779190 
	C264.092194,161.866608 263.834229,166.835587 264.164551,171.765121 
	C264.496857,176.724838 267.982941,176.279648 271.797821,175.005997 
	C272.275421,177.280228 272.706909,179.334946 273.122650,181.314697 
	C262.905731,186.238968 255.439621,181.740097 255.354431,170.918777 
	C255.342667,169.424561 255.364929,167.930099 255.370544,165.948944 
z"/>
<path fill="#232C27" opacity="1.000000" stroke="none" 
	d="
M192.517746,73.885353 
	C188.942688,84.782188 185.549759,95.745422 181.623917,106.514366 
	C180.921066,108.442352 178.228027,110.349792 176.090515,110.931580 
	C164.962387,113.960434 153.664032,114.085739 142.559494,110.896423 
	C140.409225,110.278854 138.005081,107.922714 137.171051,105.798157 
	C133.531342,96.526428 130.374100,87.062584 127.153320,77.630363 
	C125.718376,73.428070 127.012558,71.731308 132.973404,70.194031 
	C134.463974,69.985725 135.245575,69.981689 136.195099,70.210983 
	C136.910767,70.609726 137.458511,70.775146 138.018341,71.244171 
	C138.346283,72.031601 138.662155,72.515404 138.987000,73.220123 
	C138.995956,73.441048 139.012344,73.882904 138.589706,73.966278 
	C135.506317,74.216446 132.845551,74.383240 130.184799,74.550026 
	C130.155197,74.935905 130.125610,75.321777 130.096008,75.707657 
	C130.720901,76.157578 131.345795,76.607498 131.972961,77.446419 
	C132.333572,79.561302 132.691910,81.287193 133.063049,83.306885 
	C133.389923,84.063499 133.704010,84.526306 134.048462,85.337021 
	C134.703537,87.128311 135.328232,88.571686 135.966492,90.259575 
	C135.980057,90.504082 136.011292,90.992851 136.041168,91.330917 
	C136.704147,93.108452 137.337250,94.547920 137.975128,96.326569 
	C138.316895,97.445847 138.653915,98.225960 138.996918,99.377403 
	C139.358765,101.174881 139.714630,102.601028 140.161835,104.242676 
	C140.437332,104.727119 140.684845,104.910698 141.006805,105.258316 
	C141.017929,105.507706 141.059341,106.005272 141.255707,106.282913 
	C142.967285,107.042076 144.482498,107.523590 146.278809,108.287903 
	C149.041946,108.712189 151.523987,108.853661 154.406418,109.010201 
	C158.868011,109.010742 162.929199,108.996216 167.396759,108.983597 
	C174.919327,108.741692 179.866714,105.964767 180.879074,98.207275 
	C181.132339,96.266434 182.146866,94.435951 182.684265,92.519073 
	C184.151031,87.287231 185.549866,82.036346 187.236160,76.581604 
	C188.695999,74.583351 189.488693,71.974899 192.517746,73.885353 
z"/>
<path fill="#28292A" opacity="1.000000" stroke="none" 
	d="
M137.931183,166.997223 
	C137.931000,161.014801 137.931000,155.530899 137.931000,149.727890 
	C140.589630,149.727890 143.016220,149.727890 145.719849,149.727890 
	C145.926178,150.863449 146.145355,152.069702 146.503296,154.039734 
	C149.835297,149.552689 153.706451,147.504166 158.979034,149.228806 
	C158.979034,151.713318 158.979034,154.133194 158.979034,156.531296 
	C147.949921,157.293152 146.613953,158.788574 146.587112,170.125275 
	C146.578049,173.951660 146.585678,177.778076 146.585678,182.026688 
	C143.695633,182.026688 140.994629,182.026688 137.931381,182.026688 
	C137.931381,177.100845 137.931381,172.298279 137.931183,166.997223 
z"/>
<path fill="#302016" opacity="1.000000" stroke="none" 
	d="
M138.978027,72.999207 
	C138.662155,72.515404 138.346283,72.031601 138.480438,71.162354 
	C140.737747,70.738617 142.548767,70.760887 144.351669,70.650734 
	C149.876648,70.313164 155.398514,69.924797 161.316498,69.732391 
	C166.470337,70.027504 171.237656,70.334396 175.981812,70.122498 
	C177.059433,70.074364 178.731171,68.365089 178.970749,67.185158 
	C179.864838,62.781467 178.518799,58.909832 174.566528,56.478153 
	C170.314377,53.861973 166.159790,54.673965 162.251877,57.187672 
	C162.741699,57.420330 163.231522,57.652992 163.721329,57.885654 
	C163.151657,60.604237 162.581970,63.322815 161.881226,65.679993 
	C160.743484,59.760937 158.607208,55.153736 151.980316,55.154560 
	C148.889221,55.154945 145.712173,55.422611 142.724167,56.169563 
	C135.400589,58.000343 132.977768,63.246548 136.027176,69.977654 
	C135.245575,69.981689 134.463974,69.985725 133.291687,69.977341 
	C129.183899,62.114719 135.761154,53.529781 142.456345,52.154583 
	C147.924896,51.031330 153.213165,50.627796 158.491745,53.258583 
	C159.721725,53.871590 161.890488,53.265160 163.361969,52.617229 
	C170.659241,49.404057 180.864395,53.901207 182.744659,61.564659 
	C183.167282,63.287048 182.294510,65.327263 181.694458,67.820786 
	C180.249710,69.615295 179.128601,70.810173 177.538055,72.003418 
	C171.275940,71.999268 165.479645,71.866653 159.691498,72.027840 
	C152.783356,72.220222 145.882202,72.664207 138.978027,72.999207 
z"/>
<path fill="#2B2D2D" opacity="1.000000" stroke="none" 
	d="
M243.268997,151.101013 
	C243.268997,161.362045 243.268997,171.623062 243.268997,182.157394 
	C240.687820,182.157394 238.100769,182.157394 235.215698,182.157394 
	C235.215698,171.459900 235.215698,160.885590 235.215698,149.543381 
	C237.176285,149.543381 239.254395,149.543381 241.809479,149.965332 
	C242.613968,150.625198 242.941483,150.863113 243.268997,151.101013 
z"/>
<path fill="#B6C0B8" opacity="1.000000" stroke="none" 
	d="
M192.693756,73.635025 
	C189.488693,71.974899 188.695999,74.583351 186.777298,76.484039 
	C168.028824,76.751060 149.999756,76.904236 131.970688,77.057419 
	C131.345795,76.607498 130.720901,76.157578 130.096008,75.707657 
	C130.125610,75.321777 130.155197,74.935905 130.184799,74.550026 
	C132.845551,74.383240 135.506317,74.216446 139.052338,74.041603 
	C152.623245,73.993317 165.308868,73.953087 178.375427,74.001175 
	C180.232834,73.370934 181.709305,72.652374 183.185776,71.933815 
	C185.401123,71.820015 187.633011,71.502480 189.824631,71.680626 
	C190.878891,71.766319 191.857117,72.787277 192.693756,73.635025 
z"/>
<path fill="#2B281F" opacity="1.000000" stroke="none" 
	d="
M193.689789,45.938843 
	C199.655792,48.255653 202.230972,51.725086 201.678268,56.214497 
	C201.139954,60.586872 197.932556,63.154655 192.044617,64.114601 
	C189.736816,64.490860 187.472183,65.131866 185.187881,65.652306 
	C184.745117,63.331806 184.360931,60.998287 183.848709,58.693222 
	C182.241089,51.458786 185.852539,46.536381 193.689789,45.938843 
M195.703674,50.326469 
	C193.455811,50.412601 190.791626,49.751091 189.039215,50.726944 
	C184.051453,53.504478 187.169937,57.782505 187.725677,62.443939 
	C190.416489,61.657204 192.823044,60.953583 195.889694,59.951370 
	C198.722122,57.002254 199.193893,54.001110 195.703674,50.326469 
z"/>
<path fill="#355533" opacity="1.000000" stroke="none" 
	d="
M243.535797,136.627380 
	C245.613846,140.165726 245.236084,143.353333 241.873734,144.839005 
	C240.165024,145.594009 236.461380,145.004913 235.597916,143.720444 
	C234.450867,142.014084 234.291382,138.517670 235.323044,136.714752 
	C237.280716,133.293488 240.499542,134.066727 243.535797,136.627380 
z"/>
<path fill="#211D24" opacity="1.000000" stroke="none" 
	d="
M183.098450,71.588585 
	C181.709305,72.652374 180.232834,73.370934 178.377380,73.683182 
	C178.001419,72.852928 178.004456,72.428993 178.007507,72.005051 
	C179.128601,70.810173 180.249710,69.615295 181.608322,68.222946 
	C182.234238,69.098106 182.622665,70.170731 183.098450,71.588585 
z"/>
<path fill="#121514" opacity="1.000000" stroke="none" 
	d="
M243.290695,150.729401 
	C242.941483,150.863113 242.613968,150.625198 242.164215,150.105911 
	C242.465454,150.002289 242.888931,150.180038 243.290695,150.729401 
z"/>
<path fill="#D9DADB" opacity="1.000000" stroke="none" 
	d="
M161.433334,221.608063 
	C156.080460,223.532715 152.495438,222.189072 150.993225,218.045364 
	C149.582672,214.154510 151.453461,210.036072 155.323410,208.803711 
	C158.723557,207.720947 161.613876,208.609985 163.510986,211.702820 
	C165.767090,215.380936 165.051682,218.649017 161.433334,221.608063 
M156.814102,220.020386 
	C160.418945,220.305771 162.458679,218.413269 161.802734,215.067719 
	C161.499969,213.523514 159.226105,211.726364 157.538391,211.319412 
	C156.425674,211.051102 153.560120,213.107040 153.599197,214.032791 
	C153.681458,215.981384 155.158234,217.871124 156.814102,220.020386 
z"/>
<path fill="#FEFEFE" opacity="1.000000" stroke="none" 
	d="
M161.998734,11.131409 
	C155.533249,11.131007 149.566254,11.184929 143.602402,11.072794 
	C142.687042,11.055581 141.786057,10.273094 140.878433,9.844542 
	C141.785355,9.238158 142.686615,8.114161 143.600037,8.104165 
	C154.702026,7.982682 165.806274,7.980914 176.908463,8.093204 
	C178.023743,8.104486 179.129410,9.064795 180.239532,9.584670 
	C180.088226,10.100249 179.936920,10.615829 179.785614,11.131409 
	C174.023163,11.131409 168.260712,11.131409 161.998734,11.131409 
z"/>
<path fill="#F4F4F4" opacity="1.000000" stroke="none" 
	d="
M215.600067,164.140686 
	C216.569275,166.577240 218.187195,169.203049 217.507935,170.920074 
	C216.800995,172.707092 214.013290,174.339645 211.889130,174.743118 
	C208.572998,175.373001 205.049255,174.909912 201.370132,174.909912 
	C201.370132,170.868210 201.370132,167.160004 201.370132,162.538177 
	C206.222687,163.025360 210.731033,163.477997 215.600067,164.140686 
z"/>
<path fill="#EEEEEE" opacity="1.000000" stroke="none" 
	d="
M201.224426,154.554932 
	C201.132523,150.998550 201.132523,147.889053 201.132523,144.437241 
	C204.783127,144.437241 208.059296,144.175934 211.273132,144.511459 
	C214.425934,144.840622 216.367828,146.741821 216.193924,150.218842 
	C216.026123,153.574326 214.175110,155.581802 210.943878,155.684738 
	C207.745193,155.786606 204.526321,155.255356 201.224426,154.554932 
z"/>
<path fill="#E1E1E1" opacity="1.000000" stroke="none" 
	d="
M288.685822,157.849609 
	C295.309662,153.522369 300.084717,154.970963 302.771149,162.172607 
	C297.461151,162.172607 292.306946,162.172607 286.411072,162.172607 
	C287.188995,160.585510 287.793854,159.351562 288.685822,157.849609 
z"/>
<path fill="#E7E8E8" opacity="1.000000" stroke="none" 
	d="
M112.807449,168.332672 
	C115.668053,168.253632 118.117767,168.253632 120.765228,168.253632 
	C121.176193,172.860977 119.121826,175.672211 114.898270,176.651520 
	C112.213997,177.273895 109.447639,177.002548 108.544441,173.607193 
	C107.682388,170.366501 109.771873,169.152206 112.807449,168.332672 
z"/>
<path fill="#285727" opacity="1.000000" stroke="none" 
	d="
M131.972961,77.446411 
	C149.999756,76.904236 168.028824,76.751060 186.516754,76.695442 
	C185.549866,82.036346 184.151031,87.287231 182.684265,92.519073 
	C182.146866,94.435951 181.132339,96.266434 180.879074,98.207275 
	C179.866714,105.964767 174.919327,108.741692 167.105896,108.693710 
	C162.274475,108.599670 158.140259,108.797401 154.006027,108.995132 
	C151.523987,108.853661 149.041946,108.712189 146.208893,107.920395 
	C144.258362,106.848473 142.658844,106.426872 141.059341,106.005272 
	C141.059341,106.005272 141.017929,105.507706 140.909668,105.045509 
	C140.621323,104.314392 140.377686,104.129005 140.070496,104.027168 
	C139.714630,102.601028 139.358765,101.174881 138.998154,99.036423 
	C138.652374,97.545197 138.311371,96.766296 137.970352,95.987389 
	C137.337250,94.547920 136.704147,93.108452 136.206619,91.239670 
	C136.212433,90.545258 136.082672,90.280167 135.952927,90.015068 
	C135.328232,88.571686 134.703537,87.128311 134.271805,85.167633 
	C133.993256,84.104576 133.521759,83.558830 133.050247,83.013077 
	C132.691910,81.287193 132.333572,79.561302 131.972961,77.446411 
z"/>
<path fill="#ED9B11" opacity="1.000000" stroke="none" 
	d="
M160.921600,69.556183 
	C155.398514,69.924797 149.876648,70.313164 144.351669,70.650734 
	C142.548767,70.760887 140.737747,70.738617 138.468353,70.858734 
	C137.458511,70.775146 136.910767,70.609726 136.195099,70.210983 
	C132.977768,63.246548 135.400589,58.000343 142.724167,56.169563 
	C145.712173,55.422611 148.889221,55.154945 151.980316,55.154560 
	C158.607208,55.153736 160.743484,59.760937 161.735016,65.961281 
	C161.453796,67.588043 161.187698,68.572113 160.921600,69.556183 
z"/>
<path fill="#1D1D1B" opacity="1.000000" stroke="none" 
	d="
M177.538071,72.003426 
	C178.004456,72.428993 178.001419,72.852928 177.996429,73.594864 
	C165.308868,73.953087 152.623245,73.993317 139.474976,73.958221 
	C139.012344,73.882904 138.995956,73.441048 138.987000,73.220123 
	C145.882202,72.664207 152.783356,72.220222 159.691498,72.027840 
	C165.479645,71.866653 171.275940,71.999268 177.538071,72.003426 
z"/>
<path fill="#2F522F" opacity="1.000000" stroke="none" 
	d="
M154.406418,109.010201 
	C158.140259,108.797401 162.274475,108.599670 166.699554,108.691818 
	C162.929199,108.996216 158.868011,109.010742 154.406418,109.010201 
z"/>
<path fill="#2F522F" opacity="1.000000" stroke="none" 
	d="
M141.255707,106.282913 
	C142.658844,106.426872 144.258362,106.848473 145.927795,107.637589 
	C144.482498,107.523590 142.967285,107.042076 141.255707,106.282913 
z"/>
<path fill="#2F522F" opacity="1.000000" stroke="none" 
	d="
M133.063049,83.306885 
	C133.521759,83.558830 133.993256,84.104576 134.241425,84.819717 
	C133.704010,84.526306 133.389923,84.063499 133.063049,83.306885 
z"/>
<path fill="#2F522F" opacity="1.000000" stroke="none" 
	d="
M137.975128,96.326569 
	C138.311371,96.766296 138.652374,97.545197 138.992157,98.665085 
	C138.653915,98.225960 138.316895,97.445847 137.975128,96.326569 
z"/>
<path fill="#2F522F" opacity="1.000000" stroke="none" 
	d="
M140.161835,104.242676 
	C140.377686,104.129005 140.621323,104.314392 140.898560,104.796112 
	C140.684845,104.910698 140.437332,104.727119 140.161835,104.242676 
z"/>
<path fill="#2F522F" opacity="1.000000" stroke="none" 
	d="
M135.966492,90.259575 
	C136.082672,90.280167 136.212433,90.545258 136.176727,90.901604 
	C136.011292,90.992851 135.980057,90.504082 135.966492,90.259575 
z"/>
<path fill="#E35015" opacity="1.000000" stroke="none" 
	d="
M161.316513,69.732391 
	C161.187698,68.572113 161.453796,67.588043 161.866089,66.322685 
	C162.581970,63.322815 163.151657,60.604237 163.721329,57.885654 
	C163.231522,57.652992 162.741699,57.420330 162.251877,57.187672 
	C166.159790,54.673965 170.314377,53.861973 174.566528,56.478153 
	C178.518799,58.909832 179.864838,62.781467 178.970749,67.185158 
	C178.731171,68.365089 177.059433,70.074364 175.981812,70.122498 
	C171.237656,70.334396 166.470337,70.027504 161.316513,69.732391 
z"/>
<path fill="#C68D30" opacity="1.000000" stroke="none" 
	d="
M195.229599,60.249958 
	C192.823044,60.953583 190.416489,61.657204 187.725677,62.443939 
	C187.169937,57.782505 184.051453,53.504478 189.039215,50.726944 
	C190.791626,49.751091 193.455811,50.412601 195.814270,50.702736 
	C195.924850,51.079002 195.762711,51.238625 195.387848,51.153084 
	C191.337799,50.555042 188.710648,51.974060 188.475113,55.758392 
	C188.186691,60.392811 191.467682,60.422352 194.946014,59.944939 
	C195.041046,60.046139 195.229599,60.249954 195.229599,60.249958 
z"/>
<path fill="#C68D30" opacity="1.000000" stroke="none" 
	d="
M196.006775,51.000072 
	C199.193893,54.001110 198.722122,57.002254 195.559647,60.100662 
	C195.229599,60.249954 195.041046,60.046139 195.052963,59.613041 
	C195.297501,56.532837 195.530106,53.885731 195.762711,51.238625 
	C195.762711,51.238625 195.924850,51.079002 196.006775,51.000072 
z"/>
<path fill="#28292A" opacity="1.000000" stroke="none" 
	d="
M156.438416,219.902695 
	C155.158234,217.871124 153.681458,215.981384 153.599197,214.032791 
	C153.560120,213.107040 156.425674,211.051102 157.538391,211.319412 
	C159.226105,211.726364 161.499969,213.523514 161.802734,215.067719 
	C162.458679,218.413269 160.418945,220.305771 156.438416,219.902695 
z"/>
<path fill="#F9A20A" opacity="1.000000" stroke="none" 
	d="
M195.387848,51.153084 
	C195.530106,53.885731 195.297501,56.532837 194.957932,59.511841 
	C191.467682,60.422352 188.186691,60.392811 188.475113,55.758392 
	C188.710648,51.974060 191.337799,50.555042 195.387848,51.153084 
z"/>
</svg>